<svg width="142" height="142" viewBox="0 0 142 142" fill="none" xmlns="http://www.w3.org/2000/svg">
<path d="M71.0354 78.1039C75.2734 78.1036 79.4147 79.3706 82.9271 81.742C86.4395 84.1134 89.1626 87.4809 90.7466 91.4118C92.3305 95.3427 92.7029 99.6574 91.8158 103.802C90.9288 107.946 88.8229 111.73 85.7687 114.668L72.2396 127.68H92.2854V141.847H49.7854L49.7783 129.635L75.9442 104.454C76.7884 103.642 77.4183 102.634 77.7774 101.519C78.1366 100.405 78.2137 99.2186 78.002 98.0668C77.7904 96.915 77.2964 95.8337 76.5644 94.9196C75.8324 94.0055 74.8852 93.2872 73.8075 92.8289C72.7299 92.3706 71.5554 92.1866 70.3892 92.2934C69.223 92.4002 68.1015 92.7945 67.1251 93.441C66.1486 94.0875 65.3477 94.966 64.794 95.9979C64.2402 97.0297 63.951 98.1828 63.9521 99.3539H49.7854C49.7854 93.718 52.0242 88.313 56.0094 84.3278C59.9945 80.3427 65.3995 78.1039 71.0354 78.1039ZM113.535 78.1039V106.437H127.702V78.1039H141.869V141.854H127.702V120.604H99.3687V78.1039H113.535ZM14.3687 71.0205C14.3625 79.5172 16.2695 87.9062 19.9482 95.5652C23.6269 103.224 28.9828 109.957 35.6187 115.263V132.376C24.8489 126.158 15.9058 117.215 9.68881 106.444C3.47177 95.6738 0.199856 83.4565 0.202027 71.0205H14.3687ZM71.0354 0.187141C107.763 0.187141 137.966 28.138 141.515 63.9372H127.263C125.883 52.9937 121.339 42.6907 114.189 34.2917C107.04 25.8926 97.5941 19.7625 87.0113 16.653C76.4285 13.5435 65.1683 13.5898 54.6114 16.7861C44.0545 19.9825 34.6597 26.19 27.5791 34.6476L42.702 49.7705H0.202027V7.27048L17.5208 24.5963C24.1649 16.9255 32.3828 10.7751 41.6157 6.56316C50.8486 2.35128 60.8801 0.176661 71.0283 0.187141" fill="#C6802E"/>
</svg>
