<svg width="78" height="110" viewBox="0 0 78 110" fill="none" xmlns="http://www.w3.org/2000/svg">
<path d="M39 52.25C35.3533 52.25 31.8559 50.8013 29.2773 48.2227C26.6987 45.6441 25.25 42.1467 25.25 38.5C25.25 34.8533 26.6987 31.3559 29.2773 28.7773C31.8559 26.1987 35.3533 24.75 39 24.75C42.6467 24.75 46.1441 26.1987 48.7227 28.7773C51.3013 31.3559 52.75 34.8533 52.75 38.5C52.75 40.3057 52.3943 42.0937 51.7033 43.7619C51.0123 45.4301 49.9995 46.9459 48.7227 48.2227C47.4459 49.4995 45.9301 50.5123 44.2619 51.2034C42.5937 51.8944 40.8057 52.25 39 52.25ZM39 0C28.7892 0 18.9965 4.05624 11.7764 11.2764C4.55624 18.4965 0.5 28.2892 0.5 38.5C0.5 67.375 39 110 39 110C39 110 77.5 67.375 77.5 38.5C77.5 28.2892 73.4437 18.4965 66.2236 11.2764C59.0034 4.05624 49.2108 0 39 0Z" fill="#B15717"/>
</svg>
