<svg width="64" height="50" viewBox="0 0 64 50" fill="none" xmlns="http://www.w3.org/2000/svg">
<path d="M55.625 0.25H8.375C6.28711 0.252233 4.28537 1.08264 2.809 2.559C1.33264 4.03537 0.502233 6.03711 0.5 8.125V41.875C0.502233 43.9629 1.33264 45.9646 2.809 47.441C4.28537 48.9174 6.28711 49.7478 8.375 49.75H55.625C57.7129 49.7478 59.7146 48.9174 61.191 47.441C62.6674 45.9646 63.4978 43.9629 63.5 41.875V8.125C63.4978 6.03711 62.6674 4.03537 61.191 2.559C59.7146 1.08264 57.7129 0.252233 55.625 0.25ZM53.6309 13.2761L33.3809 29.0261C32.9861 29.3331 32.5002 29.4997 32 29.4997C31.4998 29.4997 31.0139 29.3331 30.6191 29.0261L10.3691 13.2761C10.1311 13.0964 9.9313 12.8713 9.78116 12.6137C9.63101 12.3561 9.53355 12.0713 9.49444 11.7757C9.45534 11.4801 9.47536 11.1798 9.55334 10.892C9.63133 10.6042 9.76573 10.3349 9.94873 10.0995C10.1317 9.86412 10.3597 9.66747 10.6193 9.52097C10.879 9.37446 11.1652 9.28102 11.4613 9.24607C11.7574 9.21113 12.0574 9.23538 12.3441 9.3174C12.6307 9.39944 12.8982 9.53761 13.1309 9.72391L32 24.3995L50.8691 9.72391C51.3409 9.36759 51.934 9.21132 52.5202 9.28888C53.1063 9.36644 53.6384 9.67159 54.0013 10.1384C54.3642 10.6051 54.5288 11.196 54.4595 11.7832C54.3902 12.3703 54.0926 12.9066 53.6309 13.2761Z" fill="white"/>
</svg>
