<svg width="60" height="68" viewBox="0 0 60 68" fill="none" xmlns="http://www.w3.org/2000/svg">
<path d="M30 68L23.9378 59H36.0622L30 68Z" fill="#E07946"/>
<circle cx="30" cy="30" r="30" fill="#E07946"/>
<g clip-path="url(#clip0_601_27)">
<path d="M36.9215 20.7609L30.2432 14.0109L30.2316 14H24.9795V27.3913H30.0114V20.7283L36.5969 27.3696L36.6085 27.3913H36.6316H41.965V14H36.9215V20.7609Z" fill="white"/>
<path d="M23.484 15.2391L22.7651 15.913V29.337L22.7767 29.4565H27.9593L28.6782 28.7935H23.484V15.2391Z" fill="white"/>
<path d="M24.6317 27.7065V14.1522L23.8433 14.8913V28.3152L23.8549 28.4457H29.0375L29.8143 27.7065H24.6317Z" fill="white"/>
<path d="M22.2552 16.3913L21.606 16.9891V30.4131L21.6291 30.5435H26.8118L27.4494 29.9348H22.2552V16.3913Z" fill="white"/>
<path d="M18.429 19.9891L18 20.3804V33.9239H23.229L23.6464 33.5217H18.429V19.9891Z" fill="white"/>
<path d="M20.968 17.587L20.3999 18.1304V31.5544L20.4231 31.6739H25.6173L26.1738 31.1413H20.968V17.587Z" fill="white"/>
<path d="M19.7158 18.7826L19.2173 19.25V32.663L19.2405 32.7935H24.4347L24.9216 32.3261H19.7158V18.7826Z" fill="white"/>
<path d="M30.7651 32.7935H36.3651L36.8637 32.3261H31.2637L30.7651 32.7935Z" fill="white"/>
<path d="M31.9478 31.6739H37.5478L38.1043 31.1413H32.5159L31.9478 31.6739Z" fill="white"/>
<path d="M29.5596 33.9239H35.148L35.5653 33.5217H29.9885L29.5596 33.9239Z" fill="white"/>
<path d="M34.3013 29.4565H39.9129L40.6201 28.7935H35.0085L34.3013 29.4565Z" fill="white"/>
<path d="M35.3682 28.4457H40.9914L41.7798 27.7065H36.1566L35.3682 28.4457Z" fill="white"/>
<path d="M33.1538 30.5435H38.7538L39.4031 29.9348H33.7915L33.1538 30.5435Z" fill="white"/>
</g>
<path d="M18.07 45.16C18.07 46.1333 17.79 46.95 17.23 47.61C16.63 48.3233 15.8433 48.68 14.87 48.68C13.8833 48.68 13.0967 48.3267 12.51 47.62C11.9633 46.9733 11.69 46.1533 11.69 45.16C11.69 44.1733 11.96 43.35 12.5 42.69C13.0933 41.9767 13.8833 41.62 14.87 41.62C15.8433 41.62 16.63 41.98 17.23 42.7C17.79 43.3733 18.07 44.1933 18.07 45.16ZM17.04 45.16C17.04 44.42 16.8567 43.8167 16.49 43.35C16.0967 42.8367 15.5567 42.58 14.87 42.58C14.1833 42.58 13.6433 42.8367 13.25 43.35C12.8767 43.8233 12.69 44.4267 12.69 45.16C12.69 45.8933 12.8767 46.4967 13.25 46.97C13.6367 47.47 14.1767 47.72 14.87 47.72C15.5567 47.72 16.0967 47.47 16.49 46.97C16.8567 46.5033 17.04 45.9 17.04 45.16ZM29.0899 45.11C29.0899 45.83 28.7999 46.4133 28.2199 46.86C27.7266 47.2533 27.1166 47.4933 26.3899 47.58V48.52H25.3799V47.58C24.6533 47.4933 24.0466 47.2567 23.5599 46.87C22.9866 46.4167 22.6999 45.83 22.6999 45.11C22.6999 44.39 22.9866 43.8033 23.5599 43.35C24.0533 42.9567 24.6599 42.7167 25.3799 42.63V41.79H26.3899V42.62C27.1166 42.7133 27.7266 42.9533 28.2199 43.34C28.7999 43.8 29.0899 44.39 29.0899 45.11ZM28.0599 45.11C28.0599 44.69 27.8933 44.3333 27.5599 44.04C27.2466 43.7933 26.8566 43.6433 26.3899 43.59V46.6C26.8699 46.5333 27.2599 46.38 27.5599 46.14C27.8933 45.88 28.0599 45.5367 28.0599 45.11ZM25.3799 46.6V43.59C24.8999 43.6567 24.5133 43.8133 24.2199 44.06C23.8799 44.3333 23.7099 44.6833 23.7099 45.11C23.7099 45.5367 23.8799 45.88 24.2199 46.14C24.5199 46.38 24.9066 46.5333 25.3799 46.6ZM39.0048 48.52H37.9648V43.98L35.0448 47.96V48.52H34.0048V41.79H35.0448V46.31L37.9648 42.33V41.79H39.0048V48.52ZM50.1048 46.13C50.0314 46.9967 49.7214 47.6533 49.1748 48.1C48.6881 48.5067 48.0514 48.71 47.2648 48.71C46.2848 48.71 45.5148 48.3467 44.9548 47.62C44.4481 46.9733 44.1948 46.15 44.1948 45.15C44.1948 44.1633 44.4514 43.3433 44.9648 42.69C45.5248 41.9767 46.2981 41.62 47.2848 41.62C48.0248 41.62 48.6281 41.7933 49.0948 42.14C49.6614 42.5533 49.9781 43.1667 50.0448 43.98H49.0148C48.8748 43.06 48.2981 42.6 47.2848 42.6C46.6114 42.6 46.1014 42.85 45.7548 43.35C45.4481 43.7967 45.2948 44.3933 45.2948 45.14C45.2948 45.88 45.4514 46.4867 45.7648 46.96C46.1248 47.4733 46.6348 47.73 47.2948 47.73C48.3614 47.73 48.9481 47.1967 49.0548 46.13H50.1048Z" fill="white"/>
<defs>
<clipPath id="clip0_601_27">
<rect width="24" height="20" fill="white" transform="translate(18 14)"/>
</clipPath>
</defs>
</svg>
