<svg width="72" height="17" viewBox="0 0 72 17" fill="none" xmlns="http://www.w3.org/2000/svg">
<path d="M23.7899 10.78H25.8899C28.4899 10.78 30.6099 8.66002 30.6099 6.06002V0.77002H27.1099V6.06002C27.1099 6.73002 26.5599 7.28002 25.8899 7.28002H23.7899C23.1199 7.28002 22.5699 6.73002 22.5699 6.06002V0.77002H19.0699V6.06002C19.0699 8.66002 21.1899 10.78 23.7899 10.78Z" fill="#E07946"/>
<path d="M43.97 4.40002C43.97 2.40002 42.34 0.77002 40.34 0.77002H32.96V10.68H36.46V8.08002H38.3L39.86 10.68H43.94L42.09 7.59002L42.23 7.51002C43.31 6.84002 43.97 5.68002 43.97 4.40002ZM40.63 4.42002C40.63 4.47002 40.63 4.52002 40.62 4.57002C40.59 4.87002 40.45 5.15002 40.24 5.36002C39.99 5.61002 39.65 5.75002 39.29 5.75002H36.45V3.07002H39.29C39.98 3.07002 40.55 3.59002 40.62 4.28002C40.62 4.30002 40.62 4.32002 40.62 4.35002L40.63 4.42002Z" fill="#E07946"/>
<path d="M53.88 0.77002H50.1L45.42 10.62L45.39 10.67H48.85L49.57 9.15002H54.4L55.12 10.67H58.58L53.88 0.790019V0.77002ZM53.46 7.18002H50.52L51.99 4.09002L53.46 7.18002Z" fill="#E07946"/>
<path d="M68.4 0.77002V5.77002L63.77 0.78002L63.76 0.77002H60.12V10.67H63.61V5.75002L68.18 10.66L68.19 10.67H68.2H71.9V0.77002H68.4Z" fill="#E07946"/>
<path d="M13.2299 5.77002L8.58994 0.78002L8.57994 0.77002H4.93994V10.67H8.42994V5.75002L12.9999 10.66L13.0099 10.67H13.0299H16.7199V0.77002H13.2299V5.77002Z" fill="#E07946"/>
<path d="M3.90002 1.67993L3.40002 2.17993V12.1099L3.41003 12.2099H7.01003L7.50002 11.7099H3.90002V1.67993Z" fill="#E07946"/>
<path d="M4.70002 10.9101V0.880127L4.15002 1.43013V11.3601L4.16003 11.4601H7.75002L8.30002 10.9101H4.70002Z" fill="#E07946"/>
<path d="M3.04998 2.53003L2.59998 2.98003V12.92L2.61998 13.01H6.20998L6.65998 12.56H3.04998V2.53003Z" fill="#E07946"/>
<path d="M0.389975 5.19995L0.0999756 5.48995V15.51H3.71998L4.01998 15.22H0.389975V5.19995Z" fill="#E07946"/>
<path d="M2.16002 3.42993L1.77002 3.81993V13.7599L1.78002 13.8499H5.38002L5.77002 13.4499H2.16002V3.42993Z" fill="#E07946"/>
<path d="M1.28994 4.30005L0.939941 4.65005V14.58L0.959943 14.6701H4.55994L4.89994 14.33H1.28994V4.30005Z" fill="#E07946"/>
<path d="M8.95996 14.6701H12.84L13.18 14.3301H9.29996L8.95996 14.6701Z" fill="#E07946"/>
<path d="M9.77002 13.85H13.66L14.05 13.45H10.17L9.77002 13.85Z" fill="#E07946"/>
<path d="M8.12 15.51H12L12.29 15.22H8.41L8.12 15.51Z" fill="#E07946"/>
<path d="M11.4 12.21H15.3L15.79 11.71H11.9L11.4 12.21Z" fill="#E07946"/>
<path d="M12.15 11.4599H16.05L16.59 10.9099H12.69L12.15 11.4599Z" fill="#E07946"/>
<path d="M10.61 13.0101H14.5L14.94 12.5601H11.05L10.61 13.0101Z" fill="#E07946"/>
<path d="M19.88 15.23H19.42V16.19H19.11V14H19.42V14.95H19.88L20.57 14H20.91L20.12 15.06L20.94 16.19H20.59L19.88 15.23Z" fill="#E07946"/>
<path d="M23.69 14L22.72 15.8C22.64 15.94 22.55 16.05 22.45 16.12C22.35 16.19 22.23 16.23 22.11 16.23C22.01 16.23 21.92 16.21 21.82 16.16L21.9 15.91C21.98 15.94 22.05 15.95 22.11 15.95C22.25 15.95 22.36 15.88 22.45 15.73L22.5 15.65L21.62 13.99H21.95L22.66 15.38L23.39 13.99H23.69V14Z" fill="#E07946"/>
<path d="M26.16 14.2C26.32 14.34 26.4 14.52 26.4 14.76C26.4 15 26.32 15.18 26.16 15.32C26 15.46 25.77 15.52 25.49 15.52H24.95V16.18H24.64V14H25.49C25.77 14 26 14.07 26.16 14.2ZM25.93 15.13C26.03 15.05 26.09 14.92 26.09 14.77C26.09 14.62 26.04 14.49 25.93 14.41C25.83 14.33 25.67 14.28 25.48 14.28H24.95V15.26H25.48C25.68 15.25 25.83 15.21 25.93 15.13Z" fill="#E07946"/>
<path d="M29.2 14L28.23 15.8C28.15 15.94 28.06 16.05 27.96 16.12C27.86 16.19 27.74 16.23 27.62 16.23C27.52 16.23 27.43 16.21 27.33 16.16L27.41 15.91C27.49 15.94 27.56 15.95 27.62 15.95C27.76 15.95 27.87 15.88 27.96 15.73L28.01 15.65L27.13 13.99H27.46L28.17 15.38L28.9 14H29.2Z" fill="#E07946"/>
<path d="M31.9099 14V16.19H31.5999V14.28H30.6299L30.6099 14.92C30.5999 15.22 30.5799 15.47 30.5399 15.65C30.4999 15.84 30.4399 15.98 30.3599 16.07C30.2799 16.16 30.1599 16.21 30.0199 16.21C29.9599 16.21 29.8899 16.2 29.8199 16.19L29.8399 15.91C29.8699 15.92 29.9099 15.92 29.9399 15.92C30.0299 15.92 30.0999 15.88 30.1599 15.81C30.2099 15.74 30.2499 15.63 30.2799 15.49C30.3099 15.35 30.3199 15.16 30.3299 14.92L30.3599 14H31.9099Z" fill="#E07946"/>
<path d="M35.0099 14L34.0399 15.8C33.9599 15.94 33.8699 16.05 33.7699 16.12C33.6699 16.19 33.5499 16.23 33.4299 16.23C33.3299 16.23 33.2399 16.21 33.1399 16.16L33.2199 15.91C33.2999 15.94 33.3699 15.95 33.4299 15.95C33.5699 15.95 33.6799 15.88 33.7699 15.73L33.8199 15.65L32.9399 13.99H33.2699L33.9799 15.38L34.6999 14H35.0099Z" fill="#E07946"/>
<path d="M38.69 14V16.19H35.96V14H36.26V15.92H37.17V14H37.48V15.92H38.39V14H38.69Z" fill="#E07946"/>
<path d="M42.23 15.23H41.77V16.19H41.47V14H41.77V14.95H42.23L42.92 14H43.26L42.47 15.06L43.29 16.19H42.94L42.23 15.23Z" fill="#E07946"/>
<path d="M44.6199 16.07C44.4399 15.97 44.2999 15.84 44.1999 15.67C44.0999 15.5 44.0499 15.31 44.0499 15.1C44.0499 14.89 44.0999 14.7 44.1999 14.53C44.2999 14.36 44.4399 14.23 44.6199 14.13C44.7999 14.03 44.9999 13.98 45.2199 13.98C45.4399 13.98 45.6399 14.03 45.8099 14.13C45.9899 14.23 46.1299 14.36 46.2299 14.53C46.3299 14.7 46.3799 14.89 46.3799 15.1C46.3799 15.31 46.3299 15.5 46.2299 15.67C46.1299 15.84 45.9899 15.97 45.8099 16.07C45.6299 16.17 45.4299 16.22 45.2199 16.22C44.9999 16.21 44.7999 16.16 44.6199 16.07ZM45.6499 15.83C45.7799 15.76 45.8799 15.66 45.9499 15.53C46.0199 15.4 46.0599 15.26 46.0599 15.1C46.0599 14.94 46.0199 14.8 45.9499 14.67C45.8799 14.54 45.7799 14.44 45.6499 14.37C45.5199 14.3 45.3799 14.26 45.2199 14.26C45.0599 14.26 44.9099 14.3 44.7799 14.37C44.6499 14.44 44.5499 14.54 44.4699 14.67C44.3999 14.8 44.3599 14.94 44.3599 15.1C44.3599 15.26 44.3999 15.4 44.4699 15.53C44.5399 15.66 44.6499 15.76 44.7799 15.83C44.9099 15.9 45.0599 15.94 45.2199 15.94C45.3799 15.93 45.5199 15.9 45.6499 15.83Z" fill="#E07946"/>
<path d="M49.53 16.19V14.59L48.74 15.92H48.6L47.81 14.6V16.19H47.51V14H47.76L48.67 15.54L49.57 14H49.83V16.19H49.53Z" fill="#E07946"/>
<path d="M53.02 14V16.19H52.72V14.27H51.45V16.19H51.14V14H53.02Z" fill="#E07946"/>
<path d="M55.75 15.64H54.59L54.35 16.19H54.03L55.02 14H55.33L56.32 16.19H55.99L55.75 15.64ZM55.64 15.39L55.17 14.32L54.7 15.39H55.64Z" fill="#E07946"/>
<path d="M59.1999 14V16.19H58.8899V15.21H57.6299V16.19H57.3199V14H57.6299V14.94H58.8899V14H59.1999Z" fill="#E07946"/>
<path d="M60.51 14H60.82V15.69L62.11 14H62.4V16.19H62.09V14.5L60.8 16.19H60.51V14Z" fill="#E07946"/>
<path d="M65.31 14V16.19H65V15.55H64.4C64.36 15.55 64.33 15.55 64.32 15.55L63.88 16.19H63.55L64.03 15.5C63.87 15.45 63.75 15.36 63.67 15.24C63.59 15.12 63.55 14.97 63.55 14.79C63.55 14.54 63.6301 14.35 63.7901 14.21C63.9501 14.07 64.1601 14 64.44 14H65.31ZM64 15.16C64.09 15.25 64.23 15.29 64.42 15.29H65V14.27H64.44C64.2501 14.27 64.11 14.31 64.01 14.4C63.91 14.49 63.86 14.61 63.86 14.78C63.86 14.95 63.91 15.07 64 15.16Z" fill="#E07946"/>
<path d="M66.9999 16.07C66.8199 15.97 66.6899 15.84 66.5899 15.67C66.4899 15.5 66.4399 15.31 66.4399 15.1C66.4399 14.89 66.4899 14.7 66.5899 14.53C66.6899 14.36 66.8299 14.23 67.0099 14.13C67.1899 14.03 67.3899 13.98 67.5999 13.98C67.7699 13.98 67.9299 14.01 68.0699 14.07C68.2099 14.13 68.3299 14.21 68.4299 14.32L68.2299 14.52C68.0699 14.35 67.8599 14.26 67.6099 14.26C67.4499 14.26 67.2999 14.3 67.1699 14.37C67.0399 14.44 66.9399 14.54 66.8599 14.67C66.7899 14.8 66.7499 14.94 66.7499 15.1C66.7499 15.26 66.7899 15.4 66.8599 15.53C66.9299 15.66 67.0399 15.76 67.1699 15.83C67.2999 15.9 67.4499 15.94 67.6099 15.94C67.8499 15.94 68.0599 15.85 68.2299 15.68L68.4299 15.88C68.3299 15.99 68.2099 16.08 68.0699 16.14C67.9299 16.2 67.7699 16.23 67.5999 16.23C67.3699 16.21 67.1699 16.16 66.9999 16.07Z" fill="#E07946"/>
<path d="M71.04 14.94C71.18 15.06 71.25 15.23 71.25 15.46C71.25 15.7 71.18 15.88 71.03 16.01C70.88 16.14 70.67 16.2 70.39 16.2H69.49V14H69.8V14.76H70.45C70.7 14.76 70.9 14.82 71.04 14.94ZM70.79 15.82C70.89 15.74 70.94 15.62 70.94 15.46C70.94 15.16 70.75 15.01 70.38 15.01H69.8V15.94H70.38C70.55 15.94 70.69 15.9 70.79 15.82ZM71.59 14H71.9V16.19H71.59V14Z" fill="#E07946"/>
</svg>
