<svg width="207" height="184" viewBox="0 0 207 184" fill="none" xmlns="http://www.w3.org/2000/svg">
<path d="M163.2 62.2L105.6 0.0999985L105.5 0H60.2002V123.2H103.6V61.9L160.4 123L160.5 123.2H160.7H206.7V0H163.2V62.2Z" fill="#E07946"/>
<path d="M47.3001 11.4L41.1001 17.6V141.1L41.2001 142.2H85.9001L92.1001 136.1H47.3001V11.4Z" fill="#E07946"/>
<path d="M57.2001 126.1V1.40002L50.4001 8.20002V131.7L50.5001 132.9H95.2001L101.9 126.1H57.2001Z" fill="#E07946"/>
<path d="M36.7001 22L31.1001 27.5V151L31.3001 152.2H76.0001L81.5001 146.6H36.7001V22Z" fill="#E07946"/>
<path d="M3.7 55.1L0 58.7V183.3H45.1L48.7 179.6H3.7V55.1Z" fill="#E07946"/>
<path d="M25.6002 33L20.7002 38V161.5L20.9002 162.6H65.7002L70.5002 157.7H25.6002V33Z" fill="#E07946"/>
<path d="M14.8 44L10.5 48.3V171.7L10.7 172.9H55.5L59.7 168.6H14.8V44Z" fill="#E07946"/>
<path d="M110.1 172.9H158.4L162.7 168.6H114.4L110.1 172.9Z" fill="#E07946"/>
<path d="M120.3 162.6H168.6L173.4 157.7H125.2L120.3 162.6Z" fill="#E07946"/>
<path d="M99.7002 183.3H147.9L151.5 179.6H103.4L99.7002 183.3Z" fill="#E07946"/>
<path d="M140.6 142.2H189L195.1 136.1H146.7L140.6 142.2Z" fill="#E07946"/>
<path d="M149.8 132.9H198.3L205.1 126.1H156.6L149.8 132.9Z" fill="#E07946"/>
<path d="M130.7 152.2H179L184.6 146.6H136.2L130.7 152.2Z" fill="#E07946"/>
</svg>
