<svg width="170" height="193" viewBox="0 0 170 193" fill="none" xmlns="http://www.w3.org/2000/svg">
<circle cx="85" cy="85" r="85" fill="#FF4433"/>
<path d="M119 123H50C46.685 123 44 120.312 44 117V81C44 81 59.663 89.055 74 92.352V96C74 97.659 75.341 99 77 99H92C93.656 99 95 97.659 95 96V92.352C109.334 89.055 125 81 125 81V117C125 120.312 122.312 123 119 123ZM89 87C90.656 87 92 88.341 92 90V93C92 94.659 90.656 96 89 96H80C78.341 96 77 94.659 77 93V90C77 88.341 78.341 87 80 87H89ZM95 87C95 85.341 93.656 84 92 84H77C75.341 84 74 85.341 74 87V89.688C59.663 86.292 44 78 44 78V66C44 62.688 46.685 60 50 60H68V54C68 50.688 70.688 48 74 48H95C98.312 48 101 50.688 101 54V60H119C122.312 60 125 62.688 125 66V78C125 78 109.334 86.292 95 89.688V87ZM95 57C95 55.341 93.656 54 92 54H77C75.341 54 74 55.341 74 57C74 58.656 74 60 74 60H95C95 60 95 58.656 95 57Z" fill="white"/>
<path d="M85 193L68.5455 158.5H101.454L85 193Z" fill="#FF4433"/>
</svg>
