<svg width="170" height="193" viewBox="0 0 170 193" fill="none" xmlns="http://www.w3.org/2000/svg">
<circle cx="85" cy="85" r="85" fill="#E07946"/>
<path d="M85 193L68.5455 158.5H101.454L85 193Z" fill="#E07946"/>
<g clip-path="url(#clip0_3_4)">
<path d="M113.841 71.4098L86.0145 42.0473L85.9662 42H64.0822V100.252H85.0483V71.2679L112.488 100.158L112.536 100.252H112.633H134.855V42H113.841V71.4098Z" fill="white"/>
<path d="M57.8503 47.3902L54.8551 50.3218V108.716L54.9034 109.236H76.4976L79.4928 106.352H57.8503V47.3902Z" fill="white"/>
<path d="M62.6329 101.623V42.662L59.3479 45.8772V104.271L59.3962 104.839H80.9904L84.2271 101.623H62.6329Z" fill="white"/>
<path d="M52.7295 52.4022L50.0242 55.0027V113.397L50.1208 113.964H71.715L74.372 111.316H52.7295V52.4022Z" fill="white"/>
<path d="M36.7874 68.0527L35 69.7549V128.669H56.7874L58.5266 126.92H36.7874V68.0527Z" fill="white"/>
<path d="M47.3672 57.6033L45.0001 59.9674V118.361L45.0967 118.882H66.7392L69.0581 116.565H47.3672V57.6033Z" fill="white"/>
<path d="M42.1498 62.8044L40.0725 64.8375V123.184L40.1691 123.752H61.8116L63.8406 121.718H42.1498V62.8044Z" fill="white"/>
<path d="M88.1884 123.752H111.522L113.599 121.718H90.2657L88.1884 123.752Z" fill="white"/>
<path d="M93.1159 118.882H116.449L118.768 116.565H95.4831L93.1159 118.882Z" fill="white"/>
<path d="M83.1643 128.669H106.449L108.188 126.92H84.9517L83.1643 128.669Z" fill="white"/>
<path d="M102.923 109.236H126.304L129.251 106.352H105.87L102.923 109.236Z" fill="white"/>
<path d="M107.367 104.839H130.797L134.082 101.623H110.652L107.367 104.839Z" fill="white"/>
<path d="M98.1401 113.964H121.473L124.179 111.316H100.797L98.1401 113.964Z" fill="white"/>
</g>
<defs>
<clipPath id="clip0_3_4">
<rect width="100" height="87" fill="white" transform="translate(35 42)"/>
</clipPath>
</defs>
</svg>
