<svg width="252" height="280" viewBox="0 0 252 280" fill="none" xmlns="http://www.w3.org/2000/svg">
<ellipse cx="126" cy="123.316" rx="126" ry="123.316" fill="#E07946"/>
<path d="M126 280L101.609 229.948L150.391 229.948L126 280Z" fill="#E07946"/>
<g clip-path="url(#clip0_2001_905)">
<path d="M158.821 89.8394L127.472 56.0544L127.418 56H102.764V123.026H126.384V89.6762L157.297 122.917L157.351 123.026H157.46H182.496V56H158.821V89.8394Z" fill="white"/>
<path d="M95.7429 62.2021L92.3685 65.5751V132.764L92.423 133.363H116.751L120.125 130.044H95.7429V62.2021Z" fill="white"/>
<path d="M101.131 124.604V56.7617L97.4301 60.4611V127.65L97.4845 128.303H121.812L125.459 124.604H101.131Z" fill="white"/>
<path d="M89.9739 67.9689L86.9261 70.9612V138.15L87.0349 138.803H111.363L114.356 135.757H89.9739V67.9689Z" fill="white"/>
<path d="M72.0137 85.9767L70 87.9352V155.723H94.5455L96.5048 153.71H72.0137V85.9767Z" fill="white"/>
<path d="M83.9328 73.9534L81.266 76.6736V143.863L81.3748 144.461H105.757L108.369 141.795H83.9328V73.9534Z" fill="white"/>
<path d="M78.0549 79.9378L75.7146 82.2772V149.412L75.8234 150.065H100.206L102.491 147.725H78.0549V79.9378Z" fill="white"/>
<path d="M129.921 150.065H156.209L158.549 147.725H132.262L129.921 150.065Z" fill="white"/>
<path d="M135.473 144.461H161.76L164.372 141.795H138.14L135.473 144.461Z" fill="white"/>
<path d="M124.261 155.723H150.494L152.453 153.71H126.275L124.261 155.723Z" fill="white"/>
<path d="M146.521 133.363H172.862L176.182 130.044H149.841L146.521 133.363Z" fill="white"/>
<path d="M151.528 128.303H177.924L181.625 124.604H155.229L151.528 128.303Z" fill="white"/>
<path d="M141.133 138.803H167.42L170.468 135.756H144.126L141.133 138.803Z" fill="white"/>
</g>
<path d="M49.8 189.14C48.3867 190.54 46.6133 191.24 44.48 191.24C42.3467 191.24 40.5733 190.54 39.16 189.14C37.76 187.74 37.06 186.027 37.06 184C37.06 181.987 37.7667 180.28 39.18 178.88C40.6067 177.467 42.3867 176.76 44.52 176.76C46.6533 176.76 48.42 177.46 49.82 178.86C51.2333 180.26 51.94 181.973 51.94 184C51.94 186.013 51.2267 187.727 49.8 189.14ZM41.48 187.12C42.28 187.973 43.2933 188.4 44.52 188.4C45.7467 188.4 46.7533 187.98 47.54 187.14C48.3267 186.287 48.72 185.24 48.72 184C48.72 182.773 48.32 181.733 47.52 180.88C46.72 180.027 45.7067 179.6 44.48 179.6C43.2533 179.6 42.2467 180.027 41.46 180.88C40.6733 181.72 40.28 182.76 40.28 184C40.28 185.227 40.68 186.267 41.48 187.12ZM68.2522 180.48V187.3C69.3855 187.3 70.2922 186.993 70.9722 186.38C71.6655 185.753 72.0122 184.92 72.0122 183.88C72.0122 182.853 71.6655 182.033 70.9722 181.42C70.2922 180.793 69.3855 180.48 68.2522 180.48ZM68.2522 191.56H65.1722V190.04C63.0522 190.04 61.3655 189.46 60.1122 188.3C58.8589 187.127 58.2322 185.633 58.2322 183.82C58.2322 182.033 58.8589 180.573 60.1122 179.44C61.3655 178.307 63.0522 177.74 65.1722 177.74V176.46H68.2522V177.74C70.3589 177.74 72.0389 178.313 73.2922 179.46C74.5589 180.593 75.1922 182.053 75.1922 183.84C75.1922 185.64 74.5655 187.127 73.3122 188.3C72.0589 189.46 70.3722 190.04 68.2522 190.04V191.56ZM65.1722 187.3V180.48C64.0389 180.48 63.1255 180.793 62.4322 181.42C61.7389 182.033 61.3922 182.853 61.3922 183.88C61.3922 184.92 61.7389 185.753 62.4322 186.38C63.1255 186.993 64.0389 187.3 65.1722 187.3ZM94.165 177V191H91.125V181.82L85.005 191H82.105V177H85.145V186.18L91.305 177H94.165ZM108.495 191.24C106.441 191.24 104.728 190.547 103.355 189.16C101.995 187.76 101.315 186.04 101.315 184C101.315 181.973 102.001 180.26 103.375 178.86C104.748 177.46 106.495 176.76 108.615 176.76C109.828 176.76 110.848 176.96 111.675 177.36C112.501 177.747 113.288 178.307 114.035 179.04L112.195 181.16C111.595 180.613 111.028 180.22 110.495 179.98C109.975 179.727 109.341 179.6 108.595 179.6C107.421 179.6 106.448 180.027 105.675 180.88C104.915 181.72 104.535 182.76 104.535 184C104.535 185.227 104.915 186.267 105.675 187.12C106.448 187.973 107.421 188.4 108.595 188.4C109.341 188.4 109.988 188.267 110.535 188C111.081 187.733 111.661 187.32 112.275 186.76L114.235 188.86C113.475 189.673 112.648 190.273 111.755 190.66C110.875 191.047 109.788 191.24 108.495 191.24ZM131.496 191V177H134.576V182.54H140.256V177H143.336V191H140.256V185.38H134.576V191H131.496ZM157.012 184.4L160.392 177H163.732L158.352 187.82C157.752 189.02 157.085 189.887 156.352 190.42C155.632 190.953 154.772 191.22 153.772 191.22C152.718 191.22 151.712 190.947 150.752 190.4L151.952 188.14C152.458 188.447 153.012 188.6 153.612 188.6C154.305 188.6 154.892 188.227 155.372 187.48L149.772 177H153.212L157.012 184.4ZM170.179 191V177H175.899C177.553 177 178.859 177.447 179.819 178.34C180.779 179.233 181.259 180.413 181.259 181.88C181.259 183.44 180.726 184.653 179.659 185.52C178.593 186.373 177.239 186.8 175.599 186.8H173.259V191H170.179ZM173.259 184.06H175.699C176.459 184.06 177.053 183.86 177.479 183.46C177.919 183.06 178.139 182.54 178.139 181.9C178.139 181.22 177.919 180.7 177.479 180.34C177.039 179.967 176.426 179.78 175.639 179.78H173.259V184.06ZM186.739 191L192.739 176.9H195.579L201.579 191H198.359L197.079 187.86H191.159L189.879 191H186.739ZM192.259 185.14H195.979L194.119 180.6L192.259 185.14ZM208.139 191V177H211.219V182.54H216.899V177H219.979V191H216.899V185.38H211.219V191H208.139Z" fill="white"/>
<defs>
<clipPath id="clip0_2001_905">
<rect width="112.659" height="100.104" fill="white" transform="translate(70 56)"/>
</clipPath>
</defs>
</svg>
