<svg width="78" height="100" viewBox="0 0 78 100" fill="none" xmlns="http://www.w3.org/2000/svg">
<path d="M39 99.291C27.9487 96.0094 18.7692 89.3159 11.4615 79.2105C4.15383 69.1052 0.5 57.7184 0.5 45.05V15.306L39 0.923523L77.5 15.306V45.05C77.5 57.7147 73.8462 69.0997 66.5385 79.205C59.2308 89.3104 50.0513 96.002 39 99.291ZM39 72.11C45.127 72.11 50.3263 69.976 54.598 65.708C58.866 61.4327 61 56.2315 61 50.1045C61 43.9775 58.866 38.78 54.598 34.512C50.33 30.244 45.1307 28.1082 39 28.1045C32.8693 28.1009 27.6718 30.2367 23.4075 34.512C19.1432 38.7874 17.0073 43.9849 17 50.1045C16.9927 56.2242 19.1285 61.4235 23.4075 65.7025C27.6865 69.9815 32.884 72.1155 39 72.1045M48.075 62.188L36.888 50.9955V34.2425H41.1175V49.219L51.078 59.1795L48.075 62.188Z" fill="#B15717"/>
</svg>
