<svg width="112" height="106" viewBox="0 0 112 106" fill="none" xmlns="http://www.w3.org/2000/svg">
<path d="M11.8625 92.9L7.1875 90.975C4.34583 89.7833 2.44466 87.7208 1.484 84.7875C0.523331 81.8542 0.68283 78.9667 1.9625 76.125L11.8625 54.675V92.9ZM33.8625 105C30.8375 105 28.2488 103.924 26.0965 101.771C23.9442 99.6192 22.8662 97.0287 22.8625 94V61L37.4375 101.425C37.7125 102.067 37.9875 102.686 38.2625 103.284C38.5375 103.882 38.9042 104.454 39.3625 105H33.8625ZM62.1875 104.45C59.2542 105.55 56.4125 105.412 53.6625 104.037C50.9125 102.662 48.9875 100.508 47.8875 97.575L23.4125 30.475C22.3125 27.5417 22.4042 24.678 23.6875 21.884C24.9708 19.09 27.0792 17.187 30.0125 16.175L71.5375 1.04998C74.4708 -0.0500165 77.3125 0.0874838 80.0625 1.46248C82.8125 2.83748 84.7375 4.99165 85.8375 7.92498L110.313 75.025C111.413 77.9583 111.321 80.8238 110.038 83.6215C108.754 86.4192 106.646 88.3203 103.713 89.325L62.1875 104.45ZM50.3625 39C51.9208 39 53.228 38.472 54.284 37.416C55.34 36.36 55.8662 35.0547 55.8625 33.5C55.8588 31.9453 55.3327 30.64 54.284 29.584C53.2353 28.528 51.9282 28 50.3625 28C48.7968 28 47.4915 28.528 46.4465 29.584C45.4015 30.64 44.8735 31.9453 44.8625 33.5C44.8515 35.0547 45.3795 36.3618 46.4465 37.4215C47.5135 38.4812 48.8188 39.0073 50.3625 39Z" fill="#B15717"/>
</svg>
