<svg width="116" height="90" viewBox="0 0 116 90" fill="none" xmlns="http://www.w3.org/2000/svg">
<path d="M113.429 24.9085C112.671 24.1299 111.756 23.5207 110.745 23.121V4.55849C110.745 3.51261 110.33 2.50956 109.59 1.77002C108.85 1.03047 107.847 0.61499 106.802 0.61499C105.756 0.61499 104.753 1.03047 104.013 1.77002C103.273 2.50956 102.858 3.51261 102.858 4.55849V22.175H101.703C99.8546 15.9504 96.0454 10.4892 90.8425 6.6044C85.6396 2.71957 79.3212 0.61886 72.828 0.61499H43.8485C37.3553 0.61886 31.0369 2.71957 25.834 6.6044C20.6311 10.4892 16.8219 15.9504 14.9735 22.175H13.45V4.55849C13.45 3.51261 13.0345 2.50956 12.295 1.77002C11.5554 1.03047 10.5524 0.61499 9.50651 0.61499C8.46063 0.61499 7.45758 1.03047 6.71803 1.77002C5.97848 2.50956 5.56301 3.51261 5.56301 4.55849V23.176C4.6012 23.5849 3.72584 24.1728 2.98351 24.9085C1.23812 26.6735 0.256378 29.0538 0.250006 31.536V58.464C0.248559 59.6937 0.4897 60.9116 0.959622 62.048C1.42954 63.1844 2.11901 64.2169 2.98855 65.0864C3.85809 65.956 4.89061 66.6454 6.027 67.1154C7.16338 67.5853 8.3813 67.8264 9.61101 67.825H14.869C16.7174 74.0495 20.5266 79.5107 25.7295 83.3956C30.9324 87.2804 37.2508 89.3811 43.744 89.385H72.2505C78.7437 89.3811 85.0621 87.2804 90.265 83.3956C95.4679 79.5107 99.2771 74.0495 101.126 67.825H106.378C107.608 67.8264 108.826 67.5853 109.962 67.1154C111.098 66.6454 112.131 65.956 113 65.0864C113.87 64.2169 114.559 63.1844 115.029 62.048C115.499 60.9116 115.74 59.6937 115.739 58.464V31.536C115.849 29.116 115.019 26.74 113.429 24.9085ZM13.978 59.938H9.82001C9.42764 59.9411 9.04997 59.7889 8.76951 59.5145C8.51081 59.2245 8.36278 58.8524 8.35151 58.464V31.536C8.33955 31.1603 8.47596 30.7951 8.73122 30.5193C8.98647 30.2434 9.34007 30.0791 9.71551 30.062H13.978C13.9541 30.2905 13.9541 30.5209 13.978 30.7495V59.2505C13.9541 59.479 13.9541 59.7094 13.978 59.938ZM39.8005 42.789C39.1736 43.4118 38.3762 43.8349 37.5089 44.0049C36.6417 44.1749 35.7436 44.084 34.9279 43.7439C34.1123 43.4037 33.4157 42.8295 32.9262 42.0938C32.4367 41.358 32.1761 40.4937 32.1775 39.61C32.1775 38.4165 32.6505 37.2725 33.4865 36.4255L38.7445 31.1675C39.5827 30.3319 40.718 29.8626 41.9015 29.8626C43.0851 29.8626 44.2203 30.3319 45.0585 31.1675L50.3165 36.4255C50.9426 37.0498 51.3693 37.8458 51.5426 38.7129C51.7158 39.5799 51.6278 40.4788 51.2897 41.2957C50.9516 42.1127 50.3787 42.8109 49.6434 43.3019C48.9081 43.793 48.0437 44.0547 47.1595 44.054C46.5766 44.0624 45.9978 43.9549 45.4568 43.7378C44.9158 43.5206 44.4233 43.1981 44.008 42.789L41.742 40.534L39.8005 42.789ZM72.2505 65.196C68.5391 68.8638 63.5315 70.9206 58.3135 70.9206C53.0955 70.9206 48.0879 68.8638 44.3765 65.196C43.6468 64.4645 43.1929 63.503 43.092 62.4747C42.9911 61.4465 43.2493 60.415 43.8229 59.5557C44.3965 58.6963 45.2499 58.0621 46.2382 57.7608C47.2265 57.4595 48.2886 57.5097 49.244 57.903C49.7848 58.13 50.2747 58.4629 50.685 58.882C52.7452 60.8319 55.4741 61.9186 58.3108 61.9186C61.1474 61.9186 63.8763 60.8319 65.9365 58.882C66.3482 58.4622 66.8394 58.1288 67.3815 57.9012C67.9236 57.6736 68.5056 57.5563 69.0935 57.5563C69.6814 57.5563 70.2635 57.6736 70.8055 57.9012C71.3476 58.1288 71.8388 58.4622 72.2505 58.882C73.0861 59.7202 73.5554 60.8554 73.5554 62.039C73.5554 63.2225 73.0861 64.3578 72.2505 65.196ZM82.7665 42.789C81.9283 43.6246 80.7931 44.0938 79.6095 44.0938C78.426 44.0938 77.2907 43.6246 76.4525 42.789L74.1975 40.534L71.9865 42.789C71.1396 43.6065 70.0066 44.0605 68.8295 44.054C68.2457 44.0632 67.6659 43.956 67.1238 43.7388C66.5818 43.5217 66.0885 43.1988 65.6725 42.789C64.8312 41.9438 64.3588 40.7998 64.3588 39.6072C64.3588 38.4147 64.8312 37.2707 65.6725 36.4255L70.936 31.1675C71.7739 30.3335 72.9081 29.8654 74.0903 29.8654C75.2725 29.8654 76.4066 30.3335 77.2445 31.1675L82.5025 36.4255C83.4024 37.2132 83.9526 38.3262 84.032 39.5195C84.1115 40.7129 83.7136 41.8889 82.926 42.789H82.7665ZM108.116 58.5685C108.103 58.9577 107.953 59.3298 107.693 59.619C107.412 59.8934 107.034 60.0456 106.642 60.0425H102.49C102.513 59.8139 102.513 59.5835 102.49 59.355V30.535C102.513 30.3083 102.513 30.0797 102.49 29.853H106.697C106.883 29.8526 107.067 29.8899 107.238 29.9627C107.409 30.0355 107.564 30.1423 107.693 30.2765C107.962 30.5625 108.111 30.9365 108.116 31.3215V58.5685Z" fill="#B15717"/>
</svg>
