<svg width="116" height="116" viewBox="0 0 116 116" fill="none" xmlns="http://www.w3.org/2000/svg">
<path d="M58 88.8602C59.3226 89.7417 60.7004 90.5374 62.125 91.2423V111.625C62.125 112.719 61.6904 113.768 60.9168 114.542C60.1432 115.315 59.094 115.75 58 115.75C56.906 115.75 55.8568 115.315 55.0832 114.542C54.3096 113.768 53.875 112.719 53.875 111.625V91.2423C55.2996 90.5374 56.6774 89.7417 58 88.8602ZM94.1453 24.273C91.1613 17.1483 86.1383 11.0644 79.7074 6.78562C73.2764 2.50685 65.7243 0.22406 58 0.22406C50.2757 0.22406 42.7236 2.50685 36.2927 6.78562C29.8617 11.0644 24.8387 17.1483 21.8547 24.273C15.4104 27.2184 9.94819 31.9534 6.11801 37.9144C2.28782 43.8754 0.251016 50.8114 0.249998 57.8969C0.198436 77.5937 16.75 94.6094 36.4159 95.125C42.4647 95.2688 48.4573 93.9361 53.875 91.2423V72.9222L31.4041 61.6919C30.4249 61.2023 29.6804 60.3438 29.3342 59.3053C28.988 58.2667 29.0686 57.1332 29.5581 56.1541C30.0477 55.1749 30.9062 54.4304 31.9447 54.0842C32.9833 53.738 34.1168 53.8186 35.0959 54.3081L53.875 63.7028V37.375C53.875 36.281 54.3096 35.2318 55.0832 34.4582C55.8568 33.6846 56.906 33.25 58 33.25C59.094 33.25 60.1432 33.6846 60.9168 34.4582C61.6904 35.2318 62.125 36.281 62.125 37.375V51.3278L80.9041 41.9331C81.3889 41.6907 81.9167 41.5462 82.4574 41.5077C82.9981 41.4693 83.5411 41.5378 84.0553 41.7092C84.5695 41.8806 85.045 42.1516 85.4545 42.5068C85.8639 42.8619 86.1995 43.2942 86.4419 43.7791C86.6843 44.2639 86.8288 44.7917 86.8673 45.3324C86.9057 45.8731 86.8372 46.416 86.6658 46.9303C86.4944 47.4445 86.2234 47.9199 85.8683 48.3294C85.5131 48.7389 85.0808 49.0745 84.596 49.3169L62.125 60.5472V91.2423C67.2533 93.7881 72.8996 95.1168 78.625 95.125H79.5635C99.25 94.6094 115.807 77.5937 115.75 57.8969C115.749 50.8114 113.712 43.8754 109.882 37.9144C106.052 31.9534 100.59 27.2184 94.1453 24.273Z" fill="#B15717"/>
</svg>
